<svg width="104" height="53" viewBox="0 0 104 53" fill="none" xmlns="http://www.w3.org/2000/svg">
<g clip-path="url(#clip0_97655_647)">
<path d="M58.0528 27.4205C58.046 27.2566 57.7801 27.1679 57.4665 27.0586C57.3574 27.0244 57.2961 26.9903 57.2961 26.9493C57.2961 26.9083 57.3711 26.8674 57.5551 26.8332C57.9165 26.8469 58.1346 26.8879 58.3732 26.9493C58.5437 26.9971 58.5846 27.0586 58.5846 27.12C58.5846 27.1747 58.5573 27.2361 58.5573 27.2976V27.7483L61.2161 27.7142V27.1337C61.2025 27.0039 60.9571 26.8605 60.6503 26.7581C60.5344 26.7171 60.473 26.6761 60.473 26.6352C60.473 26.5942 60.548 26.56 60.7185 26.5464C61.1275 26.56 61.4207 26.6625 61.6252 26.7239C61.7411 26.7649 61.7615 26.8127 61.7615 26.8742C61.7615 26.9357 61.7343 27.0039 61.7274 27.1064C61.7002 28.841 61.7002 29.0937 61.5229 29.4557C61.4684 29.5376 61.4002 29.5922 61.3457 29.5922C61.2775 29.5922 61.223 29.5103 61.1957 29.2576L60.0776 29.2713C60.0776 29.6742 60.064 29.9747 60.0026 30.2957C60.6571 30.323 61.3184 30.2683 61.857 30.2274C62.2251 30.1796 62.1774 30.0703 62.5592 30.0703C62.7637 30.0703 63.425 30.0703 63.425 30.3298C63.425 30.4391 63.3023 30.5347 63.1114 30.5347C63.0841 30.5347 63.0637 30.5279 63.0364 30.5279C62.6274 30.5142 61.857 30.4937 60.9912 30.4937C59.8799 30.4937 58.605 30.521 57.7188 30.6166C57.4461 30.6713 57.3915 30.7532 57.2415 30.7532C57.0779 30.7532 56.1848 30.4254 56.1848 30.2752C56.1848 30.241 56.2189 30.2274 56.2939 30.2274C56.328 30.2274 56.3689 30.2274 56.4098 30.2342C56.8734 30.323 57.4801 30.3571 58.1414 30.3571C58.5982 30.3571 59.0891 30.3435 59.5731 30.3093C59.5458 29.9883 59.539 29.6537 59.5322 29.2713L58.496 29.2986C58.4687 29.5171 58.3187 29.7493 58.2028 29.7493C58.0937 29.7493 58.0528 29.5581 58.046 29.1757V27.4069L58.0528 27.4205ZM61.3252 31.7025C60.8275 31.7298 59.5186 31.7776 58.6187 31.8186C58.3187 31.8322 58.2642 31.9483 58.0937 31.9483C57.8619 31.9483 57.2483 31.6274 57.2483 31.5522C57.2483 31.5249 57.2824 31.5113 57.3642 31.5113C57.3915 31.5113 57.4324 31.5113 57.4801 31.5181C57.7801 31.5659 58.2096 31.5864 58.6868 31.5864C59.4504 31.5864 60.323 31.5454 60.9912 31.5113C61.1957 31.5044 61.1684 31.4225 61.4343 31.4225H61.5434C61.857 31.4361 61.9388 31.4908 61.9388 31.5522C61.9388 31.6137 61.857 31.7093 61.857 31.8118C61.857 32.8771 61.8502 33.3483 61.7274 33.8605C61.6593 34.0927 61.5502 34.2293 61.4548 34.2293C61.3798 34.2293 61.3252 34.1405 61.3252 33.9357V31.7025ZM58.5641 27.9737L58.5505 29.0869L61.223 29.0391V27.9396L58.5641 27.9737Z" fill="#66727C"/>
<path d="M71.347 30.4391C70.9243 30.405 70.3721 30.3913 69.8267 30.3913C69.1858 30.3913 68.5518 30.405 68.1428 30.4255C67.6246 30.4528 66.118 30.5416 65.7634 30.5552C65.5112 30.5689 65.5044 30.685 65.3544 30.685C65.1567 30.685 64.325 30.3162 64.325 30.2001C64.325 30.1728 64.359 30.1523 64.434 30.1523C64.4749 30.1523 64.5227 30.1591 64.5908 30.1796C64.8226 30.2342 65.3544 30.2616 66.043 30.2616C67.1815 30.2616 68.7427 30.1933 70.0585 30.125C70.4743 30.0977 70.3994 29.9611 70.8425 29.9611C71.2379 29.9611 71.6333 29.9952 71.6333 30.2411C71.6333 30.3503 71.5242 30.446 71.3743 30.446H71.347V30.4391ZM64.9931 29.3738C66.5679 28.7318 67.7405 27.523 67.8496 27.1952C67.8428 27.0996 67.5974 26.9221 67.3315 26.7923C67.0997 26.6967 67.0929 26.6011 67.3792 26.6011C67.4951 26.6011 68.5586 26.8879 68.5586 27.1201C68.5586 27.1611 68.5314 27.2157 68.4836 27.284C68.3609 27.4342 68.1428 27.7074 67.9928 27.8645C68.2723 27.9874 68.7154 28.1513 69.1381 28.2606C69.8335 28.4381 69.7381 28.1718 70.7061 28.643C70.8834 28.7523 70.9652 28.8752 70.9652 28.964C70.9652 29.046 70.8902 29.1006 70.7607 29.1006C70.6789 29.1006 70.5834 29.0869 70.4471 29.0255C69.5063 28.684 68.4291 28.2879 67.8292 27.9942C66.752 28.9367 65.1362 29.5103 64.8704 29.5103C64.8226 29.5103 64.7954 29.5035 64.7954 29.483C64.7954 29.4557 64.8499 29.4079 64.9863 29.3669L64.9931 29.3738ZM66.2339 33.7445C66.227 33.4235 66.227 32.5016 66.193 31.8255C66.193 31.566 66.193 31.4977 65.6066 31.2996C65.5589 31.286 65.4976 31.2586 65.4976 31.2245C65.4976 31.1972 65.5453 31.1562 65.7021 31.1289C66.6156 31.1835 66.752 31.2928 66.752 31.4294C66.752 31.484 66.7247 31.5455 66.7247 31.6001V32.0508L69.3086 32.0099V31.484C69.3086 31.3064 69.0972 31.2245 68.8518 31.1152C68.7972 31.1016 68.7291 31.0674 68.7291 31.0264C68.7291 30.9923 68.7972 30.9513 68.9881 30.9308C69.7381 31.0401 69.8608 31.122 69.8608 31.2245C69.8608 31.2791 69.8267 31.3406 69.8267 31.4157C69.8199 32.283 69.8267 33.1981 69.7176 33.6489C69.6426 33.8947 69.5472 34.0313 69.4654 34.0313C69.3835 34.0313 69.3154 33.8742 69.3154 33.5123L66.6634 33.5806C66.5747 33.922 66.4452 34.0996 66.3498 34.0996C66.2748 34.0996 66.2202 33.9835 66.2202 33.765V33.7377L66.2339 33.7445ZM66.7247 32.2899L66.7111 33.3689L69.3086 33.2938V32.2216L66.7247 32.2899Z" fill="#66727C"/>
<path d="M75.0284 28.9981C75.7647 28.9503 75.3966 28.7864 76.2147 28.7522C76.5555 28.7522 76.6987 28.8683 76.6987 28.9708C76.6987 29.0664 76.5896 29.162 76.4192 29.1688C75.9147 29.1825 75.0352 29.203 73.8694 29.2576C73.6376 29.2986 73.6104 29.3737 73.5013 29.3737C73.3922 29.3737 72.7173 29.121 72.7173 28.9776C72.7173 28.9435 72.7514 28.9298 72.8127 28.9298C72.8468 28.9298 72.8809 28.9298 72.9082 28.9366C73.4263 29.0049 73.774 29.0254 74.1149 29.0254C74.4148 29.0254 74.7216 29.0186 75.0216 28.9913L75.0284 28.9981ZM77.135 27.7279C77.1078 27.5503 76.8828 27.3932 76.5555 27.2498C76.426 27.202 76.3442 27.1542 76.3442 27.1132C76.3442 27.0791 76.4124 27.0449 76.5555 27.0313C76.9305 27.0586 77.1691 27.1542 77.4145 27.2088C77.6123 27.2566 77.66 27.3044 77.66 27.4C77.66 27.4752 77.6259 27.5776 77.6259 27.7279V31.4225C77.6259 31.7776 77.6123 33.5669 77.2509 33.5669C77.1828 33.5669 77.135 33.4781 77.135 33.2869V30.5074L76.7532 30.5415C76.4942 30.5688 76.4601 30.6576 76.351 30.6576C76.3033 30.6576 76.2556 30.6439 76.1738 30.6098C76.2283 30.76 76.2624 30.9103 76.2624 31.0605C76.2624 31.6205 75.7715 32.2625 74.8307 32.2625C73.8899 32.2625 73.3581 31.6615 73.3581 31.0196C73.3581 30.5005 73.7195 29.9952 74.4967 29.8518C74.6126 29.8244 74.7489 29.8039 74.7489 29.6605C74.7489 29.6196 74.7353 29.5786 74.6944 29.5376C74.6466 29.4966 74.6194 29.4625 74.6194 29.442C74.6194 29.4079 74.6603 29.3942 74.7489 29.3942C74.9602 29.3942 75.1443 29.5581 75.1443 29.64C75.1443 29.7083 75.0693 29.7698 75.0625 29.8449C75.4579 29.92 75.7511 30.0839 75.942 30.282C76.0988 30.2957 76.2624 30.3093 76.426 30.3093C76.6783 30.3093 76.9237 30.2957 77.135 30.2752V27.7347V27.7279ZM74.5035 28.2879C74.3262 28.2879 73.6581 27.8644 73.6581 27.7483C73.6581 27.7142 73.6854 27.7074 73.7467 27.7074C73.7876 27.7074 73.8354 27.7074 73.9103 27.721C74.3535 27.8166 74.8648 27.8508 75.3829 27.8508C75.5806 27.8576 75.7034 27.96 75.7034 28.0557C75.7034 28.1649 75.5466 28.2742 75.1784 28.2879H74.4967H74.5035ZM73.8217 30.9922C73.8217 31.4293 74.1558 31.8596 74.8171 31.8596C75.4784 31.8596 75.7988 31.4225 75.7988 30.9922C75.7988 30.562 75.4716 30.1181 74.8171 30.1181C74.1626 30.1181 73.8217 30.5552 73.8217 30.9922ZM78.4576 27.2839C78.4508 27.1542 78.1304 26.9288 77.7622 26.7649C77.6463 26.7171 77.5577 26.6557 77.5577 26.6147C77.5577 26.5805 77.6259 26.56 77.8031 26.5464C78.1304 26.5874 78.3349 26.6557 78.8121 26.7922C78.9758 26.8469 79.0167 26.9083 79.0167 26.9903C79.0167 27.0654 78.9894 27.1474 78.9894 27.2703V31.122C78.9894 33.1366 78.9349 33.6352 78.7849 33.9698C78.7167 34.0996 78.6349 34.1815 78.5735 34.1815C78.5122 34.1815 78.4576 34.1064 78.4576 33.9493V27.2771V27.2839Z" fill="#66727C"/>
<path d="M81.88 31.7024C81.805 29.5307 81.5664 29.1005 81.5664 28.3219C81.5664 27.7619 81.6959 27.4683 81.9686 27.4683C82.2413 27.4683 82.3709 27.7619 82.3709 28.3219C82.3709 29.1005 82.1323 29.5375 82.0573 31.7024H81.88ZM82.3709 33.1434C82.3709 33.3483 82.2345 33.56 81.9686 33.56C81.7028 33.56 81.5732 33.3483 81.5732 33.1434C81.5732 32.9385 81.7096 32.7336 81.9686 32.7336C82.2277 32.7336 82.3709 32.9453 82.3709 33.1434Z" fill="#66727C"/>
<path d="M29.8147 17.3748C29.7943 17.2109 29.2966 16.8352 28.2262 16.3709C27.9467 16.2752 27.8036 16.166 27.8036 16.0772C27.8036 15.9679 28.0285 15.8928 28.4717 15.8723C29.3443 15.9679 30.0056 16.166 30.5987 16.3572C30.9873 16.5074 31.0828 16.6372 31.0828 16.8011C31.0828 16.9309 31.0078 17.0948 31.0078 17.3201L30.9873 22.4557C31.2464 22.4352 31.4305 22.4557 31.71 22.4216C32.5417 22.2372 32.2077 21.9026 33.503 21.9026C33.9257 21.9026 34.6483 21.9026 34.6483 22.4011C34.6483 22.6265 34.4438 22.845 34.1302 22.8655L30.9669 22.9406C30.9464 24.4977 30.8373 25.2967 30.6533 25.8157C30.4896 26.1845 30.2647 26.4645 30.101 26.4645C29.9511 26.4645 29.8215 26.2391 29.8215 25.6313V22.6128C27.2104 23.7601 22.1791 25.1328 20.8838 25.1328C20.5293 25.1328 20.052 24.5796 20.0316 23.685L19.9771 19.8469C19.9225 19.4235 19.3294 19.2528 18.5863 19.0138C18.4022 18.9796 18.3068 18.9182 18.3068 18.8499C18.3068 18.8294 18.4022 18.5904 18.9885 18.5904C19.9498 18.5904 20.8224 18.686 21.2996 18.7748C22.4314 18.7406 23.2426 18.6791 23.8562 18.6245C25.0561 18.5152 24.4493 18.126 26.1673 18.126C26.6514 18.126 26.8696 18.3513 26.8696 18.5699C26.8696 18.7748 26.6855 18.9591 26.2969 18.9591C24.3539 19.0889 22.854 19.1435 21.5383 19.1845C21.2996 19.2596 21.1701 19.1504 21.1701 19.444C21.136 20.8918 21.0951 22.203 21.0951 23.043C21.0951 23.9513 21.0951 24.1767 21.5792 24.1767C21.7632 24.1767 26.3719 23.6782 29.8147 22.3055V17.3952V17.3748ZM27.0604 26.4782C27.0604 26.3279 26.9854 26.1435 26.8355 25.9933C26.7264 25.9182 26.6718 25.8294 26.6718 25.7543C26.6718 25.6791 26.7468 25.6245 26.8968 25.6245C27.2513 25.6245 28.1172 25.9933 28.1172 26.2528C28.1172 26.4167 27.9126 26.567 27.8376 26.7923C29.8897 27.1611 30.851 28.4791 30.851 29.7562C30.851 31.1835 29.5897 32.7611 27.2036 32.7611C24.8175 32.7611 23.6517 31.2996 23.6517 29.7426C23.6517 28.4245 24.6675 27.0723 26.7809 26.7787C26.965 26.7582 27.0604 26.6284 27.0604 26.485V26.4782ZM24.6743 29.6674C24.6743 30.7806 25.547 31.9074 27.265 31.9074C28.983 31.9074 29.8556 30.7738 29.8556 29.6674C29.8556 28.5611 28.983 27.3865 27.265 27.3865C25.547 27.3865 24.6743 28.5201 24.6743 29.6674Z" fill="#66727C"/>
<path d="M43.777 18.3923C44.1656 18.2967 44.0156 18.2284 44.6632 18.2284C45.2018 18.2284 45.6995 18.2626 45.6995 18.4879C45.6995 18.6518 45.42 18.8977 45.2768 19.0821C44.6496 19.9699 43.6679 21.1582 43.0543 21.8274C43.3338 22.1074 43.8111 22.5718 44.1451 22.8109C44.8269 23.405 44.9428 22.8109 46.0676 24.1426C46.3267 24.4772 46.4222 24.7572 46.4222 24.9757C46.4222 25.1943 46.2926 25.3445 46.0881 25.3445C45.9381 25.3445 45.72 25.2352 45.5154 25.0304C45.1064 24.6411 43.961 23.4733 42.6862 22.1552C39.6319 24.8596 36.9117 25.9182 36.5981 25.9182C36.5231 25.9182 36.5027 25.8977 36.5027 25.884C36.5027 25.8294 36.6118 25.7201 36.8708 25.5699C39.1683 24.3065 42.4066 21.8274 43.9406 18.8772C43.0543 18.9113 40.8523 19.0069 40.1637 19.0411C39.7955 19.1162 39.7546 19.2801 39.4956 19.2801C39.2024 19.2801 37.6617 18.6655 37.6617 18.3923C37.6617 18.3377 37.7571 18.283 37.9207 18.283C37.9957 18.283 38.1048 18.3035 38.2343 18.3172C38.8615 18.4469 39.6796 18.5016 40.5659 18.5016C41.0295 18.5016 43.2657 18.3923 43.7701 18.3923H43.777ZM45.57 26.4782C45.57 26.3279 45.495 26.1435 45.345 25.9933C45.2359 25.9182 45.1814 25.8294 45.1814 25.7543C45.1814 25.6791 45.2564 25.6245 45.4064 25.6245C45.7609 25.6245 46.6267 25.9933 46.6267 26.2528C46.6267 26.4167 46.4222 26.567 46.3472 26.7923C48.3992 27.1611 49.3605 28.4791 49.3605 29.7562C49.3605 31.1835 48.0993 32.7611 45.7131 32.7611C43.327 32.7611 42.1612 31.2996 42.1612 29.7426C42.1612 28.4245 43.177 27.0723 45.2905 26.7787C45.4745 26.7582 45.57 26.6284 45.57 26.485V26.4782ZM43.1838 29.6674C43.1838 30.7806 44.0565 31.9074 45.7745 31.9074C47.4925 31.9074 48.3652 30.7738 48.3652 29.6674C48.3652 28.5611 47.4925 27.3865 45.7745 27.3865C44.0565 27.3865 43.1838 28.5201 43.1838 29.6674ZM48.3311 17.3748C48.3106 17.2109 47.8129 16.8352 46.7426 16.3709C46.4631 16.2752 46.3199 16.166 46.3199 16.0772C46.3199 15.9679 46.5449 15.8928 46.988 15.8723C47.8607 15.9679 48.522 16.166 49.1151 16.3572C49.5037 16.5074 49.5991 16.6372 49.5991 16.8011C49.5991 16.9309 49.5241 17.0948 49.5241 17.3201L49.5037 22.4557C49.7627 22.4352 49.9468 22.4557 50.2263 22.4216C51.0581 22.2372 50.724 21.9026 52.0193 21.9026C52.442 21.9026 53.1647 21.9026 53.1647 22.4011C53.1647 22.6265 52.9601 22.845 52.6465 22.8655L49.4832 22.9406C49.4628 24.4977 49.3537 25.2967 49.1696 25.8157C49.006 26.1845 48.781 26.4645 48.6174 26.4645C48.4674 26.4645 48.3379 26.2391 48.3379 25.6313V17.3748H48.3311Z" fill="#66727C"/>
<path d="M29.508 17.0332C29.4875 16.8693 28.9898 16.4937 27.9195 16.0293C27.64 15.9337 27.4968 15.8244 27.4968 15.7356C27.4968 15.6264 27.7218 15.5512 28.1649 15.5308C29.0375 15.6264 29.6988 15.8244 30.292 16.0156C30.6806 16.1659 30.776 16.2956 30.776 16.4595C30.776 16.5893 30.701 16.7532 30.701 16.9786L30.6806 22.1142C30.9396 22.0937 31.1237 22.1142 31.4032 22.08C32.235 21.8956 31.9009 21.561 33.1962 21.561C33.6189 21.561 34.3416 21.561 34.3416 22.0595C34.3416 22.2849 34.137 22.5034 33.8234 22.5239L30.6601 22.5991C30.6397 24.1561 30.5306 24.9552 30.3465 25.4742C30.1829 25.843 29.9579 26.123 29.7943 26.123C29.6443 26.123 29.5148 25.8976 29.5148 25.2898V22.2713C26.9037 23.4186 21.8723 24.7913 20.577 24.7913C20.2225 24.7913 19.7453 24.2381 19.7248 23.3434L19.6703 19.5054C19.6157 19.082 19.0226 18.9113 18.2795 18.6722C18.0954 18.6381 18 18.5766 18 18.5083C18 18.4878 18.0954 18.2488 18.6818 18.2488C19.643 18.2488 20.5157 18.3444 20.9929 18.4332C22.1246 18.3991 22.9359 18.3376 23.5495 18.283C24.7493 18.1737 24.1426 17.7844 25.8606 17.7844C26.3446 17.7844 26.5628 18.0098 26.5628 18.2283C26.5628 18.4332 26.3787 18.6176 25.9901 18.6176C24.0471 18.7473 22.5473 18.802 21.2315 18.843C20.9929 18.9181 20.8634 18.8088 20.8634 19.1025C20.8293 20.5503 20.7884 21.8615 20.7884 22.7015C20.7884 23.6098 20.7884 23.8352 21.2724 23.8352C21.4565 23.8352 26.0651 23.3366 29.508 21.9639V17.0537V17.0332ZM26.7537 26.1366C26.7537 25.9864 26.6787 25.802 26.5287 25.6517C26.4196 25.5766 26.3651 25.4878 26.3651 25.4127C26.3651 25.3376 26.4401 25.283 26.5901 25.283C26.9446 25.283 27.8104 25.6517 27.8104 25.9113C27.8104 26.0752 27.6059 26.2254 27.5309 26.4508C29.5829 26.8195 30.5442 28.1376 30.5442 29.4147C30.5442 30.842 29.283 32.4195 26.8968 32.4195C24.5107 32.4195 23.3449 30.9581 23.3449 29.401C23.3449 28.083 24.3607 26.7308 26.4742 26.4371C26.6582 26.4166 26.7537 26.2869 26.7537 26.1434V26.1366ZM24.3676 29.3259C24.3676 30.4391 25.2402 31.5659 26.9582 31.5659C28.6762 31.5659 29.5489 30.4322 29.5489 29.3259C29.5489 28.2195 28.6762 27.0449 26.9582 27.0449C25.2402 27.0449 24.3676 28.1786 24.3676 29.3259Z" fill="#51A3EE"/>
<path d="M43.4702 18.0576C43.8588 17.962 43.7088 17.8937 44.3565 17.8937C44.8951 17.8937 45.3927 17.9278 45.3927 18.1532C45.3927 18.3171 45.1132 18.563 44.9701 18.7474C44.3428 19.6352 43.3611 20.8235 42.7475 21.4927C43.0271 21.7727 43.5043 22.2371 43.8384 22.4761C44.5201 23.0703 44.636 22.4761 45.7609 23.8078C46.02 24.1425 46.1154 24.4225 46.1154 24.641C46.1154 24.8596 45.9859 25.0098 45.7813 25.0098C45.6314 25.0098 45.4132 24.9005 45.2087 24.6956C44.7996 24.3064 43.6543 23.1386 42.3794 21.8205C39.3252 24.5249 36.605 25.5835 36.2914 25.5835C36.2164 25.5835 36.1959 25.563 36.1959 25.5493C36.1959 25.4947 36.305 25.3854 36.5641 25.2352C38.8616 23.9717 42.0999 21.4927 43.6338 18.5425C42.7475 18.5766 40.5455 18.6722 39.8569 18.7064C39.4888 18.7815 39.4479 18.9454 39.1888 18.9454C38.8957 18.9454 37.3549 18.3308 37.3549 18.0576C37.3549 18.003 37.4503 17.9483 37.614 17.9483C37.689 17.9483 37.798 17.9688 37.9276 17.9825C38.5548 18.1122 39.3729 18.1669 40.2592 18.1669C40.7227 18.1669 42.9589 18.0576 43.4634 18.0576H43.4702ZM45.2632 26.1435C45.2632 25.9932 45.1882 25.8088 45.0382 25.6586C44.9292 25.5835 44.8746 25.4947 44.8746 25.4195C44.8746 25.3444 44.9496 25.2898 45.0996 25.2898C45.4541 25.2898 46.3199 25.6586 46.3199 25.9181C46.3199 26.082 46.1154 26.2322 46.0404 26.4576C48.0925 26.8264 49.0537 28.1444 49.0537 29.4215C49.0537 30.8488 47.7925 32.4264 45.4064 32.4264C43.0202 32.4264 41.8545 30.9649 41.8545 29.4078C41.8545 28.0898 42.8703 26.7376 44.9837 26.4439C45.1678 26.4235 45.2632 26.2937 45.2632 26.1503V26.1435ZM42.8771 29.3327C42.8771 30.4459 43.7497 31.5727 45.4677 31.5727C47.1857 31.5727 48.0584 30.4391 48.0584 29.3327C48.0584 28.2264 47.1857 27.0517 45.4677 27.0517C43.7497 27.0517 42.8771 28.1854 42.8771 29.3327ZM48.0243 17.04C48.0038 16.8761 47.5062 16.5005 46.4358 16.0361C46.1563 15.9405 46.0131 15.8313 46.0131 15.7425C46.0131 15.6332 46.2381 15.5581 46.6813 15.5376C47.5539 15.6332 48.2152 15.8313 48.8083 16.0225C49.1969 16.1727 49.2924 16.3025 49.2924 16.4664C49.2924 16.5961 49.2174 16.76 49.2174 16.9854L49.1969 22.121C49.456 22.1005 49.64 22.121 49.9196 22.0869C50.7513 21.9025 50.4172 21.5678 51.7126 21.5678C52.1353 21.5678 52.8579 21.5678 52.8579 22.0664C52.8579 22.2917 52.6534 22.5103 52.3398 22.5308L49.1765 22.6059C49.156 24.163 49.0469 24.962 48.8629 25.481C48.6992 25.8498 48.4743 26.1298 48.3106 26.1298C48.1606 26.1298 48.0311 25.9044 48.0311 25.2966V17.0332L48.0243 17.04Z" fill="#51A3EE"/>
<path d="M25.4993 13.4478C25.8984 13.4478 26.2219 13.1237 26.2219 12.7239C26.2219 12.3241 25.8984 12 25.4993 12C25.1002 12 24.7766 12.3241 24.7766 12.7239C24.7766 13.1237 25.1002 13.4478 25.4993 13.4478Z" fill="#66727C"/>
<path d="M43.7498 13.4478C44.1489 13.4478 44.4724 13.1237 44.4724 12.7239C44.4724 12.3241 44.1489 12 43.7498 12C43.3506 12 43.0271 12.3241 43.0271 12.7239C43.0271 13.1237 43.3506 13.4478 43.7498 13.4478Z" fill="#66727C"/>
<path d="M56.3553 21.7317H86.8296V39.8293H31.9486V35.7249" stroke="#66727C" stroke-width="0.5" stroke-miterlimit="10"/>
</g>
<defs>
<clipPath id="clip0_97655_647">
<rect width="69" height="28" fill="white" transform="translate(18 12)"/>
</clipPath>
</defs>
</svg>
